<svg id="Layer_1" data-name="Layer 1" xmlns="http://www.w3.org/2000/svg" viewBox="0 0 121.39 112.9"><defs><style>.cls-1{fill:#fff;}.cls-1,.cls-11,.cls-12,.cls-13,.cls-2,.cls-3,.cls-4,.cls-5{fill-rule:evenodd;}.cls-2{fill:#5d7abd;}.cls-3{fill:#848383;}.cls-4,.cls-7{fill:#f9a31b;}.cls-5,.cls-8{fill:#f4eadc;}.cls-12,.cls-6{fill:#bab7b5;}.cls-13,.cls-9{fill:#d37a28;}.cls-10,.cls-11{fill:#aa6027;}</style></defs><title>city</title><path class="cls-1" d="M53.35,32.93a6.69,6.69,0,0,1,4.26,1.52,4,4,0,0,1,7,2.91,4.08,4.08,0,0,1,6.25,3.18h0a2.9,2.9,0,1,1,0,5.79H53.35a6.7,6.7,0,0,1,0-13.4Z" transform="translate(-5.61 -32.93)"/><path class="cls-1" d="M116.93,56.86a6.61,6.61,0,0,1,6.6,6.6,6.87,6.87,0,0,1-.24,1.77,4.23,4.23,0,0,1-.52,8.42H104.6a4.34,4.34,0,0,1-.82-8.6,6,6,0,0,1,8.38-6.15,6.6,6.6,0,0,1,4.77-2Z" transform="translate(-5.61 -32.93)"/><path class="cls-1" d="M74.69,71.27a6.41,6.41,0,0,0-4.07,1.46A3.81,3.81,0,0,0,64,75.51a3.92,3.92,0,0,0-6,3h0a2.77,2.77,0,1,0,0,5.54H74.69a6.41,6.41,0,1,0,0-12.82Z" transform="translate(-5.61 -32.93)"/><path class="cls-1" d="M26.9,47.6A5.21,5.21,0,1,0,26.9,58H45a4,4,0,0,0,1.2-7.74A4.86,4.86,0,0,0,43,46.07a5.6,5.6,0,1,0-11.07,0,5.51,5.51,0,0,0-2.2,2.36,5.2,5.2,0,0,0-2.81-.82Z" transform="translate(-5.61 -32.93)"/><path class="cls-1" d="M27.67,76.92a3.22,3.22,0,0,1,0,6.43H16.52a2.44,2.44,0,0,1-.74-4.77,3,3,0,0,1,2-2.6,3.46,3.46,0,1,1,6.83,0,3.36,3.36,0,0,1,1.36,1.46,3.23,3.23,0,0,1,1.74-.51Z" transform="translate(-5.61 -32.93)"/><path class="cls-1" d="M16.44,44.91a5,5,0,0,0-5,5,4.85,4.85,0,0,0,.18,1.33,3.17,3.17,0,0,0,.38,6.31H25.68a3.25,3.25,0,0,0,.62-6.45,4.47,4.47,0,0,0-4.44-5,4.58,4.58,0,0,0-1.85.4,4.94,4.94,0,0,0-3.57-1.53Z" transform="translate(-5.61 -32.93)"/><path class="cls-1" d="M109.42,43.26a8.22,8.22,0,0,1,8.22,8.22,8,8,0,0,1-.3,2.21,5.26,5.26,0,0,1-.64,10.49H94.05a5.41,5.41,0,0,1-1-10.72,7.44,7.44,0,0,1,7.38-8.32,7.29,7.29,0,0,1,3.07.66,8.23,8.23,0,0,1,6-2.54Z" transform="translate(-5.61 -32.93)"/><path class="cls-2" d="M6.68,106.05v5.47m0,2.74v5.47m0,2.73v5.47m0,2.73v5.47" transform="translate(-5.61 -32.93)"/><path class="cls-3" d="M5.61,144.74h121V108.93h-1.07V93a.24.24,0,0,0-.25-.22h-.13c-.07,0-.12,0-.12-.07s-.06,0-.13,0h-.63a.63.63,0,0,1-.63-.53v-.3c0-.09,0-.12-.15-.12h-8.21c-.11,0-.27,0-.27.12v.47a.48.48,0,0,1-.53.48h-.64a.56.56,0,0,0-.6.51v15.68h-4.37V87.88a.48.48,0,0,0-.54-.46h-.93a.64.64,0,0,1-.66-.53v-.24a.39.39,0,0,1,.42-.34.38.38,0,0,0,.41-.35v0a.38.38,0,0,0-.42-.38H90.48c-.27,0-.48.16-.48.38v0a.38.38,0,0,0,.41.35.39.39,0,0,1,.42.34v.24a.58.58,0,0,1-.6.53h-.82c-.33,0-.59.19-.59.46v21.05H85.27V92.08a.28.28,0,0,0-.32-.29h-.24a.13.13,0,0,1-.12-.13.12.12,0,0,0-.13-.1H83.12a.52.52,0,0,1-.57-.46v-.2a.31.31,0,0,0-.31-.29H70c-.17,0-.37.14-.37.29v.38a.51.51,0,0,1-.54.51H67.55a.54.54,0,0,0-.6.47v16.67H61.4V88.43s0-.06,0-.06H51c-.15,0-.33-.1-.33-.22v-.67A.53.53,0,0,0,50.1,87H47.26c-.26,0-.47-.15-.47-.36s-.22-.35-.48-.35h-1c-.27,0-.48.14-.48.36v.05a.41.41,0,0,1-.44.35.36.36,0,0,0-.39.34v1a.06.06,0,0,1-.06.05H38.54c-.07,0-.19,0-.19.11v9.45c0-.06-.24-.1-.37-.1a.54.54,0,0,1-.58-.49v-.5c0-.27-.2-.44-.53-.44h-.53s-.06-.05-.06-.07a5.35,5.35,0,0,0,0-.55A5.94,5.94,0,0,0,31.67,91c-.31-.08-.53-.18-.53-.16a1.5,1.5,0,0,0,.06-.48,1.27,1.27,0,0,0-.11-.56,1.43,1.43,0,0,0-.69-.68c-.29-.14-.56-.39-.56-.66V83a2.75,2.75,0,0,0-.12-1v0c0-.26-.26-.52-.26-.47a3.28,3.28,0,0,0-.09.47v0a8,8,0,0,0,0,1v5.47c0,.27-.28.52-.56.66a1.43,1.43,0,0,0-.69.68,1.38,1.38,0,0,0,0,1s-.07,0-.07,0l-.58.12a6.67,6.67,0,0,0-4.21,2.92h-15c-.27,0-.48.16-.48.38v.06a.36.36,0,0,0,.4.34.4.4,0,0,1,.43.35v.24a.58.58,0,0,1-.6.52H7.15c-.33,0-.59.19-.59.46v12.78H5.61Z" transform="translate(-5.61 -32.93)"/><path class="cls-4" d="M38,72.75l-.19,11v0h.74v0l-.19-11c0-.43,0-.85-.14-.85h-.08C38,71.9,38,72.32,38,72.75Z" transform="translate(-5.61 -32.93)"/><path class="cls-5" d="M32.5,87.77H43.73l.07-.12s-.31-3.93-5.6-3.93S32.5,87.77,32.5,87.77Z" transform="translate(-5.61 -32.93)"/><rect class="cls-6" x="24" y="54.86" width="16.95" height="1.35"/><rect class="cls-7" x="22.12" y="56.2" width="20.72" height="1.35"/><rect class="cls-8" x="19.37" y="59.16" width="26.07" height="50.53"/><rect class="cls-6" x="20.67" y="57.55" width="23.47" height="52.15"/><rect class="cls-8" x="22.12" y="59.16" width="20.72" height="50.53"/><rect class="cls-9" x="28.93" y="80.69" width="7.24" height="1.48"/><rect class="cls-10" x="37.27" y="80.83" width="1.61" height="1.48"/><rect class="cls-10" x="37.27" y="69.12" width="1.61" height="1.48"/><rect class="cls-10" x="37.27" y="92.41" width="1.61" height="1.48"/><rect class="cls-10" x="37.27" y="101.15" width="1.61" height="1.48"/><rect class="cls-10" x="37.27" y="63.34" width="1.61" height="1.48"/><rect class="cls-9" x="37.33" y="86.62" width="1.59" height="1.48"/><rect class="cls-9" x="37.33" y="75.04" width="1.59" height="1.48"/><rect class="cls-10" x="37.27" y="98.33" width="1.61" height="1.48"/><rect class="cls-10" x="37.27" y="106.94" width="1.61" height="1.48"/><rect class="cls-9" x="37.33" y="60.38" width="1.59" height="1.48"/><rect class="cls-10" x="37.27" y="83.66" width="1.61" height="1.48"/><rect class="cls-10" x="37.27" y="71.95" width="1.61" height="1.48"/><rect class="cls-9" x="37.33" y="95.37" width="1.59" height="1.48"/><rect class="cls-9" x="37.33" y="103.98" width="1.59" height="1.48"/><rect class="cls-9" x="37.33" y="66.3" width="1.59" height="1.48"/><rect class="cls-10" x="37.27" y="89.58" width="1.61" height="1.48"/><rect class="cls-10" x="37.27" y="77.87" width="1.61" height="1.48"/><rect class="cls-9" x="39.94" y="80.83" width="1.59" height="1.48"/><rect class="cls-10" x="39.96" y="69.12" width="1.48" height="1.48"/><rect class="cls-10" x="39.96" y="92.41" width="1.48" height="1.48"/><rect class="cls-10" x="39.96" y="101.15" width="1.48" height="1.48"/><rect class="cls-9" x="39.94" y="63.34" width="1.59" height="1.48"/><rect class="cls-10" x="39.96" y="86.62" width="1.48" height="1.48"/><rect class="cls-10" x="39.96" y="75.04" width="1.48" height="1.48"/><rect class="cls-9" x="39.94" y="98.33" width="1.59" height="1.48"/><rect class="cls-9" x="39.94" y="106.94" width="1.59" height="1.48"/><rect class="cls-10" x="39.96" y="60.38" width="1.48" height="1.48"/><rect class="cls-10" x="39.96" y="83.66" width="1.48" height="1.48"/><rect class="cls-9" x="39.94" y="71.95" width="1.59" height="1.48"/><rect class="cls-10" x="39.96" y="95.37" width="1.48" height="1.48"/><rect class="cls-10" x="39.96" y="103.98" width="1.48" height="1.48"/><rect class="cls-10" x="39.96" y="66.3" width="1.48" height="1.48"/><rect class="cls-9" x="39.94" y="89.58" width="1.59" height="1.48"/><rect class="cls-9" x="39.94" y="77.87" width="1.59" height="1.48"/><rect class="cls-9" x="23.42" y="80.83" width="1.59" height="1.48"/><rect class="cls-10" x="23.41" y="69.12" width="1.61" height="1.48"/><rect class="cls-10" x="23.41" y="92.41" width="1.61" height="1.48"/><rect class="cls-10" x="23.41" y="101.15" width="1.61" height="1.48"/><rect class="cls-9" x="23.42" y="63.34" width="1.59" height="1.48"/><rect class="cls-10" x="23.41" y="86.62" width="1.61" height="1.48"/><rect class="cls-10" x="23.41" y="75.04" width="1.61" height="1.48"/><rect class="cls-9" x="23.42" y="98.33" width="1.59" height="1.48"/><rect class="cls-9" x="23.42" y="106.94" width="1.59" height="1.48"/><rect class="cls-10" x="23.41" y="60.38" width="1.61" height="1.48"/><rect class="cls-10" x="23.41" y="83.66" width="1.61" height="1.48"/><rect class="cls-9" x="23.42" y="71.95" width="1.59" height="1.48"/><rect class="cls-10" x="23.41" y="95.37" width="1.61" height="1.48"/><rect class="cls-10" x="23.41" y="103.98" width="1.61" height="1.48"/><rect class="cls-10" x="23.41" y="66.3" width="1.61" height="1.48"/><rect class="cls-9" x="23.42" y="89.58" width="1.59" height="1.48"/><rect class="cls-10" x="23.41" y="77.87" width="1.61" height="1.48"/><rect class="cls-10" x="25.96" y="80.83" width="1.61" height="1.48"/><rect class="cls-10" x="25.96" y="69.12" width="1.61" height="1.48"/><rect class="cls-10" x="25.96" y="92.41" width="1.61" height="1.48"/><rect class="cls-10" x="25.96" y="101.15" width="1.61" height="1.48"/><rect class="cls-10" x="25.96" y="63.34" width="1.61" height="1.48"/><rect class="cls-9" x="26.03" y="86.62" width="1.59" height="1.48"/><rect class="cls-9" x="26.03" y="75.04" width="1.59" height="1.48"/><rect class="cls-10" x="25.96" y="98.33" width="1.61" height="1.48"/><rect class="cls-10" x="25.96" y="106.94" width="1.61" height="1.48"/><rect class="cls-9" x="26.03" y="60.38" width="1.59" height="1.48"/><rect class="cls-10" x="25.96" y="83.66" width="1.61" height="1.48"/><rect class="cls-10" x="25.96" y="71.95" width="1.61" height="1.48"/><rect class="cls-9" x="26.03" y="95.37" width="1.59" height="1.48"/><rect class="cls-9" x="26.03" y="103.98" width="1.59" height="1.48"/><rect class="cls-9" x="26.03" y="66.3" width="1.59" height="1.48"/><rect class="cls-10" x="25.96" y="89.58" width="1.61" height="1.48"/><rect class="cls-10" x="25.96" y="77.87" width="1.61" height="1.48"/><rect class="cls-9" x="28.93" y="69.08" width="7.24" height="1.48"/><rect class="cls-9" x="28.93" y="92.3" width="7.24" height="1.48"/><rect class="cls-9" x="28.93" y="101" width="7.24" height="1.48"/><rect class="cls-9" x="28.93" y="63.28" width="7.24" height="1.48"/><rect class="cls-9" x="28.93" y="86.48" width="7.24" height="1.48"/><rect class="cls-9" x="28.93" y="74.91" width="7.24" height="1.48"/><rect class="cls-9" x="28.93" y="98.1" width="7.24" height="1.48"/><rect class="cls-9" x="28.93" y="106.81" width="7.24" height="1.48"/><rect class="cls-9" x="28.93" y="60.38" width="7.24" height="1.48"/><rect class="cls-9" x="28.93" y="83.59" width="7.24" height="1.48"/><rect class="cls-9" x="28.93" y="71.95" width="7.24" height="1.48"/><rect class="cls-9" x="28.93" y="95.2" width="7.24" height="1.48"/><rect class="cls-9" x="28.93" y="103.9" width="7.24" height="1.48"/><rect class="cls-9" x="28.93" y="66.18" width="7.24" height="1.48"/><rect class="cls-9" x="28.93" y="89.39" width="7.24" height="1.48"/><rect class="cls-9" x="28.93" y="77.79" width="7.24" height="1.48"/><polygon class="cls-11" points="32.47 60.95 33.12 61.86 31.82 61.86 32.47 60.95"/><polygon class="cls-11" points="32.47 63.91 33.12 64.82 31.82 64.82 32.47 63.91"/><polygon class="cls-11" points="32.47 66.73 33.12 67.64 31.82 67.64 32.47 66.73"/><polygon class="cls-11" points="32.47 69.69 33.12 70.6 31.82 70.6 32.47 69.69"/><polygon class="cls-11" points="32.47 72.66 33.12 73.56 31.82 73.56 32.47 72.66"/><polygon class="cls-11" points="32.47 75.48 33.12 76.39 31.82 76.39 32.47 75.48"/><polygon class="cls-11" points="32.47 78.44 33.12 79.35 31.82 79.35 32.47 78.44"/><polygon class="cls-11" points="32.47 81.27 33.12 82.18 31.82 82.18 32.47 81.27"/><polygon class="cls-11" points="32.47 84.23 33.12 85.14 31.82 85.14 32.47 84.23"/><polygon class="cls-11" points="32.47 87.06 33.12 87.96 31.82 87.96 32.47 87.06"/><polygon class="cls-11" points="32.47 90.02 33.12 90.92 31.82 90.92 32.47 90.02"/><polygon class="cls-11" points="32.47 92.84 33.12 93.75 31.82 93.75 32.47 92.84"/><polygon class="cls-11" points="32.47 95.8 33.12 96.71 31.82 96.71 32.47 95.8"/><polygon class="cls-11" points="32.47 98.76 33.12 99.67 31.82 99.67 32.47 98.76"/><polygon class="cls-11" points="32.47 101.59 33.12 102.5 31.82 102.5 32.47 101.59"/><polygon class="cls-11" points="32.47 104.55 33.12 105.46 31.82 105.46 32.47 104.55"/><polygon class="cls-11" points="32.47 107.38 33.12 108.29 31.82 108.29 32.47 107.38"/><polygon class="cls-4" points="53.1 39.75 49.34 40.67 49.45 40.8 62.52 40.8 62.52 40.91 62.66 40.8 58.89 39.75 59.34 40.8 52.68 40.8 53.1 39.75"/><path class="cls-12" d="M55,73.73v22.8l3.22-22.8ZM68.2,97V73.73H65Z" transform="translate(-5.61 -32.93)"/><path class="cls-5" d="M65,73.68c3.52,26.17,9.62,70.23,9.62,70.23H48.42s6-43.29,9.81-70.18" transform="translate(-5.61 -32.93)"/><path class="cls-12" d="M65,73.73C63.72,67,62.65,62,62.6,61.33c-.32-2.24-1.13-2-1.28-1.31-.14.18-1.5,6-3.09,13.71Z" transform="translate(-5.61 -32.93)"/><rect class="cls-10" x="62.32" y="80.91" width="0.67" height="2.56"/><rect class="cls-10" x="60.17" y="89.25" width="0.67" height="2.56"/><rect class="cls-9" x="48.6" y="80.91" width="0.67" height="2.56"/><rect class="cls-10" x="47.38" y="89.25" width="0.67" height="2.56"/><rect class="cls-10" x="50.61" y="80.91" width="0.67" height="2.56"/><rect class="cls-10" x="49.27" y="89.25" width="0.67" height="2.56"/><rect class="cls-10" x="52.5" y="80.91" width="0.67" height="2.56"/><rect class="cls-10" x="51.02" y="89.25" width="0.67" height="2.56"/><rect class="cls-9" x="54.52" y="80.91" width="0.67" height="2.56"/><rect class="cls-10" x="52.9" y="89.25" width="0.67" height="2.56"/><rect class="cls-10" x="56.4" y="80.91" width="0.67" height="2.56"/><rect class="cls-9" x="54.65" y="89.25" width="0.67" height="2.56"/><rect class="cls-10" x="58.42" y="80.91" width="0.67" height="2.56"/><rect class="cls-10" x="56.54" y="89.25" width="0.67" height="2.56"/><rect class="cls-9" x="60.3" y="80.91" width="0.67" height="2.56"/><rect class="cls-10" x="61.92" y="76.87" width="0.67" height="2.56"/><rect class="cls-10" x="49.13" y="76.87" width="0.67" height="2.56"/><rect class="cls-9" x="51.02" y="76.87" width="0.67" height="2.56"/><rect class="cls-10" x="52.77" y="76.87" width="0.67" height="2.56"/><rect class="cls-10" x="54.65" y="76.87" width="0.67" height="2.56"/><rect class="cls-9" x="56.4" y="76.87" width="0.67" height="2.56"/><rect class="cls-9" x="58.29" y="76.87" width="0.67" height="2.56"/><rect class="cls-10" x="60.04" y="76.87" width="0.67" height="2.56"/><rect class="cls-10" x="49.81" y="72.7" width="0.67" height="2.56"/><rect class="cls-9" x="51.83" y="72.7" width="0.67" height="2.56"/><rect class="cls-10" x="53.71" y="72.7" width="0.67" height="2.56"/><rect class="cls-10" x="55.73" y="72.7" width="0.67" height="2.56"/><rect class="cls-9" x="57.61" y="72.7" width="0.67" height="2.56"/><rect class="cls-10" x="59.63" y="72.7" width="0.67" height="2.56"/><rect class="cls-10" x="61.52" y="72.7" width="0.67" height="2.56"/><rect class="cls-10" x="50.35" y="68.39" width="0.67" height="2.56"/><rect class="cls-10" x="52.63" y="68.39" width="0.67" height="2.56"/><rect class="cls-9" x="54.65" y="68.39" width="0.67" height="2.56"/><rect class="cls-10" x="56.81" y="68.39" width="0.67" height="2.56"/><rect class="cls-9" x="58.82" y="68.39" width="0.67" height="2.56"/><rect class="cls-10" x="61.11" y="68.39" width="0.67" height="2.56"/><rect class="cls-9" x="50.88" y="63.82" width="0.67" height="2.56"/><rect class="cls-10" x="52.77" y="63.82" width="0.67" height="2.56"/><rect class="cls-10" x="54.65" y="63.82" width="0.67" height="2.56"/><rect class="cls-9" x="56.67" y="63.82" width="0.67" height="2.56"/><rect class="cls-10" x="58.55" y="63.82" width="0.67" height="2.56"/><rect class="cls-10" x="60.44" y="63.82" width="0.67" height="2.56"/><rect class="cls-10" x="51.56" y="59.37" width="0.67" height="2.56"/><rect class="cls-9" x="53.58" y="59.37" width="0.67" height="2.56"/><rect class="cls-10" x="55.73" y="59.37" width="0.67" height="2.56"/><rect class="cls-10" x="57.75" y="59.37" width="0.67" height="2.56"/><rect class="cls-9" x="59.77" y="59.37" width="0.67" height="2.56"/><rect class="cls-10" x="52.23" y="55.07" width="0.67" height="2.56"/><rect class="cls-9" x="54.52" y="55.07" width="0.67" height="2.56"/><rect class="cls-9" x="56.94" y="55.07" width="0.67" height="2.56"/><rect class="cls-10" x="59.23" y="55.07" width="0.67" height="2.56"/><rect class="cls-10" x="52.77" y="50.63" width="0.67" height="2.56"/><rect class="cls-10" x="54.65" y="50.63" width="0.67" height="2.56"/><rect class="cls-9" x="56.67" y="50.63" width="0.67" height="2.56"/><rect class="cls-10" x="58.55" y="50.63" width="0.67" height="2.56"/><rect class="cls-9" x="53.31" y="46.05" width="0.67" height="2.56"/><rect class="cls-9" x="55.73" y="46.05" width="0.67" height="2.56"/><rect class="cls-10" x="58.02" y="46.05" width="0.67" height="2.56"/><rect class="cls-9" x="53.84" y="42.01" width="0.67" height="2.56"/><rect class="cls-10" x="55.73" y="42.01" width="0.67" height="2.56"/><rect class="cls-9" x="57.48" y="42.01" width="0.67" height="2.56"/><rect class="cls-9" x="58.29" y="89.25" width="0.67" height="2.56"/><rect class="cls-9" x="63.8" y="89.25" width="0.67" height="2.56"/><rect class="cls-10" x="61.92" y="89.25" width="0.67" height="2.56"/><rect class="cls-10" x="61.38" y="85.08" width="0.67" height="2.56"/><rect class="cls-9" x="61.11" y="93.42" width="0.67" height="2.56"/><rect class="cls-10" x="47.92" y="85.08" width="0.67" height="2.56"/><rect class="cls-9" x="48.19" y="93.42" width="0.67" height="2.56"/><rect class="cls-10" x="46.58" y="93.42" width="0.67" height="2.56"/><rect class="cls-10" x="49.67" y="85.08" width="0.67" height="2.56"/><rect class="cls-10" x="49.81" y="93.42" width="0.67" height="2.56"/><rect class="cls-9" x="51.29" y="85.08" width="0.67" height="2.56"/><rect class="cls-9" x="51.42" y="93.42" width="0.67" height="2.56"/><rect class="cls-10" x="53.04" y="85.08" width="0.67" height="2.56"/><rect class="cls-10" x="53.04" y="93.42" width="0.67" height="2.56"/><rect class="cls-10" x="54.65" y="85.08" width="0.67" height="2.56"/><rect class="cls-9" x="54.65" y="93.42" width="0.67" height="2.56"/><rect class="cls-10" x="56.4" y="85.08" width="0.67" height="2.56"/><rect class="cls-10" x="56.27" y="93.42" width="0.67" height="2.56"/><rect class="cls-9" x="58.02" y="85.08" width="0.67" height="2.56"/><rect class="cls-10" x="57.88" y="93.42" width="0.67" height="2.56"/><rect class="cls-10" x="63.13" y="85.08" width="0.67" height="2.56"/><rect class="cls-10" x="62.73" y="93.42" width="0.67" height="2.56"/><rect class="cls-10" x="64.34" y="93.42" width="0.67" height="2.56"/><rect class="cls-10" x="59.77" y="85.08" width="0.67" height="2.56"/><rect class="cls-10" x="59.5" y="93.42" width="0.67" height="2.56"/><rect class="cls-10" x="61.65" y="97.6" width="0.67" height="2.56"/><rect class="cls-10" x="62.32" y="102.04" width="0.67" height="2.56"/><rect class="cls-10" x="47.65" y="97.6" width="0.67" height="2.56"/><rect class="cls-10" x="48.6" y="102.04" width="0.67" height="2.56"/><rect class="cls-10" x="46.98" y="102.04" width="0.67" height="2.56"/><rect class="cls-10" x="49.4" y="97.6" width="0.67" height="2.56"/><rect class="cls-9" x="50.35" y="102.04" width="0.67" height="2.56"/><rect class="cls-10" x="51.15" y="97.6" width="0.67" height="2.56"/><rect class="cls-10" x="52.09" y="102.04" width="0.67" height="2.56"/><rect class="cls-10" x="52.9" y="97.6" width="0.67" height="2.56"/><rect class="cls-10" x="53.71" y="102.04" width="0.67" height="2.56"/><rect class="cls-9" x="54.65" y="97.6" width="0.67" height="2.56"/><rect class="cls-10" x="55.46" y="102.04" width="0.67" height="2.56"/><rect class="cls-10" x="56.4" y="97.6" width="0.67" height="2.56"/><rect class="cls-9" x="57.21" y="102.04" width="0.67" height="2.56"/><rect class="cls-10" x="58.15" y="97.6" width="0.67" height="2.56"/><rect class="cls-10" x="58.82" y="102.04" width="0.67" height="2.56"/><rect class="cls-10" x="63.4" y="97.6" width="0.67" height="2.56"/><rect class="cls-9" x="63.94" y="102.04" width="0.67" height="2.56"/><rect class="cls-10" x="65.15" y="97.6" width="0.67" height="2.56"/><rect class="cls-10" x="65.69" y="102.04" width="0.67" height="2.56"/><rect class="cls-9" x="59.9" y="97.6" width="0.67" height="2.56"/><rect class="cls-9" x="60.57" y="102.04" width="0.67" height="2.56"/><rect class="cls-10" x="62.73" y="106.34" width="0.67" height="2.56"/><rect class="cls-10" x="48.19" y="106.34" width="0.67" height="2.56"/><rect class="cls-9" x="46.44" y="106.34" width="0.67" height="2.56"/><rect class="cls-9" x="50.08" y="106.34" width="0.67" height="2.56"/><rect class="cls-10" x="51.83" y="106.34" width="0.67" height="2.56"/><rect class="cls-9" x="53.71" y="106.34" width="0.67" height="2.56"/><rect class="cls-10" x="55.46" y="106.34" width="0.67" height="2.56"/><rect class="cls-10" x="57.34" y="106.34" width="0.67" height="2.56"/><rect class="cls-10" x="59.09" y="106.34" width="0.67" height="2.56"/><rect class="cls-9" x="64.61" y="106.34" width="0.67" height="2.56"/><rect class="cls-10" x="66.36" y="106.34" width="0.67" height="2.56"/><rect class="cls-10" x="46.04" y="97.6" width="0.67" height="2.56"/><rect class="cls-10" x="45.5" y="102.04" width="0.67" height="2.56"/><rect class="cls-10" x="44.83" y="106.34" width="0.67" height="2.56"/><rect class="cls-9" x="60.98" y="106.34" width="0.67" height="2.56"/><rect class="cls-8" x="91.73" y="49.68" width="25.7" height="59.15"/><rect class="cls-7" x="105.92" y="31.17" width="0.46" height="6.06"/><rect class="cls-7" x="105.92" y="37.22" width="1.22" height="5.92"/><rect class="cls-7" x="105.92" y="43.14" width="2.29" height="6.59"/><polygon class="cls-12" points="108.28 49.69 108.28 63.97 114.76 63.97 114.76 108.83 117.43 108.83 117.43 49.69 108.28 49.69"/><polygon class="cls-12" points="100.88 49.69 100.88 63.97 94.4 63.97 94.4 108.83 91.73 108.83 91.73 49.69 100.88 49.69"/><rect class="cls-10" x="109.96" y="52.91" width="2.42" height="2.15"/><rect class="cls-10" x="96.78" y="52.91" width="2.42" height="2.15"/><rect class="cls-10" x="113.6" y="52.91" width="2.42" height="2.15"/><rect class="cls-10" x="93.01" y="52.91" width="2.56" height="2.15"/><rect class="cls-10" x="109.96" y="56.14" width="2.42" height="2.15"/><rect class="cls-10" x="96.78" y="56.14" width="2.42" height="2.15"/><rect class="cls-10" x="113.6" y="56.14" width="2.42" height="2.15"/><rect class="cls-10" x="93.01" y="56.14" width="2.56" height="2.15"/><rect class="cls-10" x="109.96" y="59.37" width="2.42" height="2.15"/><rect class="cls-10" x="96.78" y="59.37" width="2.42" height="2.15"/><rect class="cls-10" x="113.6" y="59.37" width="2.42" height="2.15"/><rect class="cls-10" x="93.01" y="59.37" width="2.56" height="2.15"/><rect class="cls-7" x="102.71" y="31.17" width="0.46" height="6.06"/><rect class="cls-7" x="101.95" y="37.22" width="1.22" height="5.92"/><rect class="cls-7" x="100.88" y="43.14" width="2.29" height="6.59"/><rect class="cls-10" x="95.56" y="65.03" width="2.02" height="2.02"/><rect class="cls-9" x="98.82" y="65.03" width="2.05" height="1.93"/><rect class="cls-9" x="95.62" y="67.92" width="2.05" height="1.93"/><rect class="cls-10" x="98.79" y="67.99" width="2.02" height="1.88"/><rect class="cls-10" x="95.56" y="70.81" width="2.02" height="2.02"/><rect class="cls-10" x="98.66" y="70.81" width="2.15" height="2.02"/><rect class="cls-10" x="108.35" y="65.03" width="2.02" height="2.02"/><rect class="cls-9" x="111.56" y="65.03" width="2.05" height="1.93"/><rect class="cls-10" x="108.35" y="67.99" width="2.02" height="1.88"/><rect class="cls-10" x="111.58" y="67.99" width="2.02" height="1.88"/><rect class="cls-10" x="108.35" y="70.81" width="2.02" height="2.02"/><rect class="cls-9" x="111.57" y="70.82" width="2.05" height="1.93"/><rect class="cls-10" x="102.02" y="65.03" width="2.02" height="2.02"/><rect class="cls-9" x="105.15" y="65.03" width="2.05" height="1.93"/><rect class="cls-10" x="102.02" y="67.99" width="2.02" height="1.88"/><rect class="cls-9" x="105.15" y="67.92" width="2.05" height="1.93"/><rect class="cls-9" x="102.01" y="70.82" width="2.05" height="1.93"/><rect class="cls-10" x="104.98" y="70.81" width="2.15" height="2.02"/><rect class="cls-10" x="95.56" y="73.77" width="2.02" height="1.88"/><rect class="cls-9" x="98.78" y="73.72" width="2.05" height="1.93"/><rect class="cls-10" x="95.56" y="76.74" width="2.02" height="2.02"/><rect class="cls-10" x="98.66" y="76.74" width="2.15" height="2.02"/><rect class="cls-9" x="95.62" y="79.63" width="2.05" height="1.93"/><rect class="cls-10" x="98.66" y="79.7" width="2.15" height="1.88"/><rect class="cls-10" x="108.35" y="73.77" width="2.02" height="1.88"/><rect class="cls-10" x="111.58" y="73.77" width="2.02" height="1.88"/><rect class="cls-9" x="108.33" y="76.74" width="2.05" height="1.93"/><rect class="cls-10" x="111.58" y="76.74" width="2.02" height="2.02"/><rect class="cls-10" x="108.35" y="79.7" width="2.02" height="1.88"/><rect class="cls-10" x="111.58" y="79.7" width="2.02" height="1.88"/><rect class="cls-10" x="102.02" y="73.77" width="2.02" height="1.88"/><rect class="cls-9" x="105.1" y="73.72" width="2.05" height="1.93"/><rect class="cls-10" x="102.02" y="76.74" width="2.02" height="2.02"/><rect class="cls-10" x="104.98" y="76.74" width="2.15" height="2.02"/><rect class="cls-9" x="102.01" y="79.63" width="2.05" height="1.93"/><rect class="cls-10" x="104.98" y="79.7" width="2.15" height="1.88"/><rect class="cls-10" x="95.56" y="82.52" width="2.02" height="2.02"/><rect class="cls-10" x="98.66" y="82.52" width="2.15" height="2.02"/><rect class="cls-10" x="95.56" y="85.48" width="2.02" height="1.88"/><rect class="cls-10" x="98.66" y="85.48" width="2.15" height="1.88"/><rect class="cls-9" x="95.62" y="88.32" width="2.05" height="1.93"/><rect class="cls-10" x="98.66" y="88.31" width="2.15" height="2.02"/><rect class="cls-9" x="108.33" y="82.53" width="2.05" height="1.93"/><rect class="cls-10" x="111.58" y="82.52" width="2.02" height="2.02"/><rect class="cls-10" x="108.35" y="85.48" width="2.02" height="1.88"/><rect class="cls-10" x="111.58" y="85.48" width="2.02" height="1.88"/><rect class="cls-10" x="108.35" y="88.31" width="2.02" height="2.02"/><rect class="cls-9" x="111.57" y="88.32" width="2.05" height="1.93"/><rect class="cls-10" x="102.02" y="82.52" width="2.02" height="2.02"/><rect class="cls-10" x="104.98" y="82.52" width="2.15" height="2.02"/><rect class="cls-9" x="102.01" y="85.43" width="2.05" height="1.93"/><rect class="cls-10" x="104.98" y="85.48" width="2.15" height="1.88"/><rect class="cls-10" x="102.02" y="88.31" width="2.02" height="2.02"/><rect class="cls-9" x="105.1" y="88.32" width="2.05" height="1.93"/><rect class="cls-10" x="95.56" y="91.27" width="2.02" height="1.88"/><rect class="cls-9" x="98.78" y="91.22" width="2.05" height="1.93"/><rect class="cls-9" x="95.62" y="94.12" width="2.05" height="1.93"/><rect class="cls-10" x="98.66" y="94.1" width="2.15" height="2.02"/><rect class="cls-10" x="95.56" y="97.06" width="2.02" height="1.88"/><rect class="cls-10" x="98.66" y="97.06" width="2.15" height="1.88"/><rect class="cls-9" x="108.33" y="91.22" width="2.05" height="1.93"/><rect class="cls-10" x="111.58" y="91.27" width="2.02" height="1.88"/><rect class="cls-10" x="108.35" y="94.1" width="2.02" height="2.02"/><rect class="cls-10" x="111.58" y="94.1" width="2.02" height="2.02"/><rect class="cls-9" x="108.33" y="97.01" width="2.05" height="1.93"/><rect class="cls-9" x="111.57" y="97.01" width="2.05" height="1.93"/><rect class="cls-10" x="102.02" y="91.27" width="2.02" height="1.88"/><rect class="cls-10" x="104.98" y="91.27" width="2.15" height="1.88"/><rect class="cls-10" x="102.02" y="94.1" width="2.02" height="2.02"/><rect class="cls-9" x="105.1" y="94.12" width="2.05" height="1.93"/><rect class="cls-10" x="102.02" y="97.06" width="2.02" height="1.88"/><rect class="cls-10" x="104.98" y="97.06" width="2.15" height="1.88"/><rect class="cls-10" x="95.56" y="99.88" width="2.02" height="2.02"/><rect class="cls-9" x="98.78" y="99.91" width="2.05" height="1.93"/><rect class="cls-9" x="95.62" y="102.93" width="2.05" height="1.93"/><rect class="cls-10" x="98.66" y="102.98" width="2.15" height="1.88"/><rect class="cls-10" x="95.56" y="105.8" width="2.02" height="2.02"/><rect class="cls-9" x="98.78" y="105.82" width="2.05" height="1.93"/><rect class="cls-10" x="108.35" y="99.88" width="2.02" height="2.02"/><rect class="cls-10" x="111.58" y="99.88" width="2.02" height="2.02"/><rect class="cls-9" x="108.33" y="102.93" width="2.05" height="1.93"/><rect class="cls-10" x="111.58" y="102.98" width="2.02" height="1.88"/><rect class="cls-9" x="108.33" y="105.82" width="2.05" height="1.93"/><rect class="cls-10" x="111.58" y="105.8" width="2.02" height="2.02"/><rect class="cls-10" x="102.02" y="99.88" width="2.02" height="2.02"/><rect class="cls-9" x="105.1" y="99.91" width="2.05" height="1.93"/><rect class="cls-9" x="102.01" y="102.93" width="2.05" height="1.93"/><rect class="cls-10" x="104.98" y="102.98" width="2.15" height="1.88"/><rect class="cls-10" x="102.02" y="105.8" width="2.02" height="2.02"/><rect class="cls-10" x="104.98" y="105.8" width="2.15" height="2.02"/><rect class="cls-10" x="102.02" y="53.45" width="2.02" height="1.88"/><rect class="cls-10" x="104.98" y="53.45" width="2.15" height="1.88"/><rect class="cls-10" x="102.02" y="50.76" width="2.02" height="1.88"/><rect class="cls-10" x="104.98" y="50.76" width="2.15" height="1.88"/><rect class="cls-10" x="102.02" y="56.41" width="2.02" height="1.88"/><rect class="cls-9" x="105.1" y="56.33" width="2.05" height="1.93"/><rect class="cls-9" x="102.01" y="59.35" width="2.05" height="1.93"/><rect class="cls-10" x="104.98" y="59.37" width="2.15" height="1.88"/><rect class="cls-10" x="102.02" y="62.34" width="2.02" height="1.88"/><rect class="cls-10" x="104.98" y="62.34" width="2.15" height="1.88"/><polygon class="cls-12" points="2.23 56.38 2.23 112.9 23.09 112.9 23.09 56.38 20.8 56.38 20.8 60.96 4.39 60.96 4.39 56.38 2.23 56.38"/><rect class="cls-8" x="4.39" y="55.03" width="16.42" height="57.87"/><rect class="cls-10" x="6" y="63.58" width="1.35" height="3.23"/><rect class="cls-9" x="6" y="91.37" width="1.35" height="3.23"/><rect class="cls-10" x="6" y="56.45" width="3.5" height="3.23"/><rect class="cls-10" x="10.71" y="56.45" width="3.63" height="3.23"/><rect class="cls-10" x="15.56" y="56.45" width="3.63" height="3.23"/><rect class="cls-9" x="8.36" y="63.51" width="1.35" height="3.23"/><rect class="cls-10" x="8.29" y="91.44" width="1.35" height="3.23"/><rect class="cls-9" x="6" y="67.68" width="1.35" height="3.23"/><rect class="cls-10" x="6" y="95.61" width="1.35" height="3.23"/><rect class="cls-10" x="8.29" y="67.75" width="1.35" height="3.23"/><rect class="cls-9" x="8.36" y="95.54" width="1.35" height="3.23"/><rect class="cls-10" x="6" y="71.92" width="1.35" height="3.23"/><rect class="cls-10" x="6" y="99.78" width="1.35" height="3.23"/><rect class="cls-9" x="8.36" y="71.86" width="1.35" height="3.23"/><rect class="cls-10" x="8.29" y="99.78" width="1.35" height="3.23"/><rect class="cls-9" x="15.49" y="63.51" width="1.35" height="3.23"/><rect class="cls-10" x="15.42" y="91.44" width="1.35" height="3.23"/><rect class="cls-10" x="17.84" y="63.58" width="1.35" height="3.23"/><rect class="cls-9" x="17.84" y="91.37" width="1.35" height="3.23"/><rect class="cls-10" x="15.42" y="67.75" width="1.35" height="3.23"/><rect class="cls-10" x="15.42" y="95.61" width="1.35" height="3.23"/><rect class="cls-10" x="17.84" y="67.75" width="1.35" height="3.23"/><rect class="cls-9" x="17.84" y="95.54" width="1.35" height="3.23"/><rect class="cls-9" x="15.49" y="71.86" width="1.35" height="3.23"/><rect class="cls-9" x="15.49" y="99.71" width="1.35" height="3.23"/><rect class="cls-10" x="17.84" y="71.92" width="1.35" height="3.23"/><rect class="cls-10" x="17.84" y="99.78" width="1.35" height="3.23"/><rect class="cls-10" x="10.71" y="63.58" width="1.35" height="3.23"/><rect class="cls-9" x="10.71" y="91.37" width="1.35" height="3.23"/><rect class="cls-10" x="13.13" y="63.58" width="1.35" height="3.23"/><rect class="cls-10" x="13.13" y="91.44" width="1.35" height="3.23"/><rect class="cls-10" x="10.71" y="67.75" width="1.35" height="3.23"/><rect class="cls-10" x="10.71" y="95.61" width="1.35" height="3.23"/><rect class="cls-9" x="13.13" y="67.68" width="1.35" height="3.23"/><rect class="cls-9" x="13.13" y="95.54" width="1.35" height="3.23"/><rect class="cls-10" x="10.71" y="71.92" width="1.35" height="3.23"/><rect class="cls-9" x="10.71" y="99.71" width="1.35" height="3.23"/><rect class="cls-10" x="13.13" y="71.92" width="1.35" height="3.23"/><rect class="cls-10" x="13.13" y="99.78" width="1.35" height="3.23"/><rect class="cls-9" x="6" y="76.03" width="1.35" height="3.23"/><rect class="cls-9" x="6" y="103.89" width="1.35" height="3.23"/><rect class="cls-10" x="8.29" y="76.1" width="1.35" height="3.23"/><rect class="cls-10" x="8.29" y="103.95" width="1.35" height="3.23"/><rect class="cls-10" x="6" y="80.27" width="1.35" height="3.23"/><rect class="cls-10" x="6" y="108.13" width="1.35" height="3.23"/><rect class="cls-9" x="8.36" y="80.2" width="1.35" height="3.23"/><rect class="cls-9" x="8.36" y="108.06" width="1.35" height="3.23"/><rect class="cls-9" x="6" y="84.37" width="1.35" height="3.23"/><rect class="cls-10" x="8.29" y="84.44" width="1.35" height="3.23"/><rect class="cls-10" x="15.42" y="76.1" width="1.35" height="3.23"/><rect class="cls-10" x="15.42" y="103.95" width="1.35" height="3.23"/><rect class="cls-10" x="17.84" y="76.1" width="1.35" height="3.23"/><rect class="cls-9" x="17.84" y="103.89" width="1.35" height="3.23"/><rect class="cls-9" x="15.49" y="80.2" width="1.35" height="3.23"/><rect class="cls-9" x="15.49" y="108.06" width="1.35" height="3.23"/><rect class="cls-10" x="17.84" y="80.27" width="1.35" height="3.23"/><rect class="cls-10" x="17.84" y="108.13" width="1.35" height="3.23"/><rect class="cls-10" x="15.42" y="84.44" width="1.35" height="3.23"/><rect class="cls-9" x="17.84" y="84.37" width="1.35" height="3.23"/><rect class="cls-9" x="10.71" y="76.03" width="1.35" height="3.23"/><rect class="cls-10" x="10.71" y="103.95" width="1.35" height="3.23"/><rect class="cls-10" x="13.13" y="76.1" width="1.35" height="3.23"/><rect class="cls-9" x="13.13" y="103.89" width="1.35" height="3.23"/><rect class="cls-10" x="10.71" y="80.27" width="1.35" height="3.23"/><rect class="cls-10" x="10.71" y="108.13" width="1.35" height="3.23"/><rect class="cls-10" x="13.13" y="80.27" width="1.35" height="3.23"/><rect class="cls-10" x="13.13" y="108.13" width="1.35" height="3.23"/><rect class="cls-9" x="10.71" y="84.37" width="1.35" height="3.23"/><rect class="cls-10" x="13.13" y="84.44" width="1.35" height="3.23"/><rect class="cls-10" x="3.44" y="61.02" width="18.3" height="0.94"/><rect class="cls-6" x="3.44" y="54.09" width="18.3" height="0.94"/><rect class="cls-7" x="5.46" y="53.15" width="14.27" height="0.94"/><rect class="cls-10" x="3.44" y="89.28" width="18.3" height="0.94"/><path class="cls-4" d="M85.44,76.69l-.07,8,.32,0,.32,0-.06-8c0-.58-.11-1.15-.22-1.15h-.08C85.54,75.54,85.44,76.11,85.44,76.69Z" transform="translate(-5.61 -32.93)"/><path class="cls-13" d="M83.78,86.2a1.64,1.64,0,0,0,0,.22,9.74,9.74,0,0,1,1.72-.16h0a9.36,9.36,0,0,1,2,.22,1.33,1.33,0,0,0,0-.28,1.95,1.95,0,0,0-3.82,0Z" transform="translate(-5.61 -32.93)"/><path class="cls-4" d="M93.27,91.5c-.75-3-4-5.22-7.8-5.24h0c-3.84,0-7,2.26-7.8,5.24Z" transform="translate(-5.61 -32.93)"/><path class="cls-12" d="M90.17,91.5c-.42-3-2.22-5.22-4.38-5.24h0c-2.16,0-4,2.26-4.38,5.24Z" transform="translate(-5.61 -32.93)"/><rect class="cls-6" x="70.74" y="58.58" width="18.59" height="1.65"/><rect class="cls-8" x="69.34" y="60.23" width="21.38" height="52.37"/><rect class="cls-9" x="68.14" y="65.22" width="23.38" height="1.15"/><rect class="cls-9" x="68.14" y="77.07" width="23.38" height="1.15"/><rect class="cls-9" x="68.14" y="100.76" width="23.38" height="1.15"/><rect class="cls-9" x="68.14" y="88.91" width="23.38" height="1.15"/><rect class="cls-9" x="70.7" y="68.26" width="1.76" height="6.93"/><rect class="cls-9" x="70.7" y="91.94" width="1.78" height="6.93"/><rect class="cls-10" x="70.67" y="80.1" width="1.75" height="7"/><rect class="cls-9" x="70.7" y="103.79" width="1.76" height="6.93"/><rect class="cls-10" x="70.67" y="61.26" width="1.75" height="2.56"/><rect class="cls-9" x="75.56" y="68.26" width="1.76" height="6.93"/><rect class="cls-10" x="75.51" y="91.94" width="1.75" height="7"/><rect class="cls-10" x="75.51" y="80.1" width="1.75" height="7"/><rect class="cls-9" x="75.61" y="103.79" width="1.71" height="6.93"/><rect class="cls-10" x="75.51" y="61.26" width="1.75" height="2.56"/><rect class="cls-10" x="77.93" y="68.26" width="1.75" height="7"/><rect class="cls-9" x="77.99" y="91.94" width="1.76" height="6.93"/><rect class="cls-10" x="77.93" y="80.1" width="1.75" height="7"/><rect class="cls-10" x="77.93" y="103.79" width="1.75" height="7"/><rect class="cls-9" x="78" y="61.26" width="1.76" height="2.49"/><rect class="cls-10" x="80.36" y="68.26" width="1.88" height="7"/><rect class="cls-10" x="80.36" y="91.94" width="1.88" height="7"/><rect class="cls-9" x="80.42" y="80.1" width="1.76" height="6.93"/><rect class="cls-10" x="80.36" y="103.79" width="1.88" height="7"/><rect class="cls-10" x="80.36" y="61.26" width="1.88" height="2.56"/><rect class="cls-9" x="82.85" y="68.26" width="1.76" height="6.93"/><rect class="cls-10" x="82.78" y="91.94" width="1.88" height="7"/><rect class="cls-10" x="82.78" y="80.1" width="1.88" height="7"/><rect class="cls-9" x="82.85" y="103.79" width="1.76" height="6.93"/><rect class="cls-9" x="82.85" y="61.26" width="1.76" height="2.49"/><rect class="cls-10" x="73.09" y="68.26" width="1.75" height="7"/><rect class="cls-10" x="73.09" y="91.94" width="1.75" height="7"/><rect class="cls-9" x="73.14" y="80.1" width="1.76" height="6.93"/><rect class="cls-10" x="73.09" y="103.79" width="1.75" height="7"/><rect class="cls-9" x="73.14" y="61.26" width="1.76" height="2.49"/><rect class="cls-10" x="85.2" y="68.26" width="1.75" height="7"/><rect class="cls-9" x="85.27" y="91.94" width="1.78" height="6.93"/><rect class="cls-9" x="85.27" y="80.1" width="1.76" height="6.93"/><rect class="cls-10" x="85.2" y="103.79" width="1.75" height="7"/><rect class="cls-10" x="85.2" y="61.26" width="1.75" height="2.56"/><rect class="cls-9" x="87.71" y="68.26" width="1.76" height="6.93"/><rect class="cls-10" x="87.62" y="91.94" width="1.75" height="7"/><rect class="cls-10" x="87.62" y="80.1" width="1.75" height="7"/><rect class="cls-9" x="87.71" y="103.79" width="1.76" height="6.93"/><rect class="cls-9" x="87.71" y="61.26" width="1.76" height="2.49"/></svg>