<svg id="Layer_1" data-name="Layer 1" xmlns="http://www.w3.org/2000/svg" viewBox="0 0 419.7 89.3"><defs><style>.cls-1{fill:#f4f1cb;fill-rule:evenodd;}</style></defs><title>cloud</title><path class="cls-1" d="M212.5,43.76a6.72,6.72,0,0,1,4.26,1.53,4,4,0,0,1,7,2.91A4.08,4.08,0,0,1,230,51.37h0a2.9,2.9,0,1,1,0,5.8H212.5a6.71,6.71,0,1,1,0-13.41Z" transform="translate(-16.45 -5.64)"/><path class="cls-1" d="M284.08,71.21a6.6,6.6,0,0,1,6.59,6.6,6.41,6.41,0,0,1-.24,1.77,4.23,4.23,0,0,1-.51,8.42H271.75a4.34,4.34,0,0,1-.83-8.6,6,6,0,0,1,8.39-6.15,6.6,6.6,0,0,1,4.77-2Z" transform="translate(-16.45 -5.64)"/><path class="cls-1" d="M233.84,82.11a6.41,6.41,0,0,0-4.08,1.46,3.81,3.81,0,0,0-6.66,2.78,3.91,3.91,0,0,0-6,3h0a2.77,2.77,0,0,0,0,5.54h16.73a6.41,6.41,0,0,0,0-12.82Z" transform="translate(-16.45 -5.64)"/><path class="cls-1" d="M186.05,58.44a5.21,5.21,0,0,0,0,10.42h18.06a4,4,0,0,0,1.2-7.74,4.89,4.89,0,0,0-3.18-4.21,5.6,5.6,0,1,0-11.07,0,5.59,5.59,0,0,0-2.21,2.36,5.16,5.16,0,0,0-2.8-.82Z" transform="translate(-16.45 -5.64)"/><path class="cls-1" d="M186.81,87.76a3.22,3.22,0,1,1,0,6.43H175.67a2.45,2.45,0,0,1-.75-4.78,3,3,0,0,1,2-2.59,3.46,3.46,0,1,1,6.83,0,3.42,3.42,0,0,1,1.36,1.46,3.22,3.22,0,0,1,1.73-.51Z" transform="translate(-16.45 -5.64)"/><path class="cls-1" d="M175.58,55.75a5,5,0,0,0-4.94,5,4.85,4.85,0,0,0,.18,1.33,3.17,3.17,0,0,0,.38,6.31h13.63a3.25,3.25,0,0,0,.62-6.45,4.47,4.47,0,0,0-4.44-5,4.55,4.55,0,0,0-1.85.4,4.94,4.94,0,0,0-3.58-1.53Z" transform="translate(-16.45 -5.64)"/><path class="cls-1" d="M268.57,54.1a8.22,8.22,0,0,1,8.22,8.22,8.42,8.42,0,0,1-.3,2.21A5.26,5.26,0,0,1,275.85,75H253.2a5.41,5.41,0,0,1-1-10.72,7.42,7.42,0,0,1,10.45-7.66,8.2,8.2,0,0,1,5.95-2.54Z" transform="translate(-16.45 -5.64)"/><path class="cls-1" d="M349.5,8.76a6.72,6.72,0,0,1,4.26,1.53,4,4,0,0,1,7,2.91A4.08,4.08,0,0,1,367,16.37h0a2.9,2.9,0,0,1,0,5.8H349.5a6.71,6.71,0,1,1,0-13.41Z" transform="translate(-16.45 -5.64)"/><path class="cls-1" d="M426.08,66.21a6.6,6.6,0,0,1,6.59,6.6,6.41,6.41,0,0,1-.24,1.77,4.23,4.23,0,0,1-.51,8.42H413.75a4.34,4.34,0,0,1-.83-8.6,6,6,0,0,1,8.39-6.15,6.6,6.6,0,0,1,4.77-2Z" transform="translate(-16.45 -5.64)"/><path class="cls-1" d="M370.84,47.11a6.41,6.41,0,0,0-4.08,1.46,3.81,3.81,0,0,0-6.66,2.78,3.91,3.91,0,0,0-6,3h0a2.77,2.77,0,0,0,0,5.54h16.73a6.41,6.41,0,1,0,0-12.82Z" transform="translate(-16.45 -5.64)"/><path class="cls-1" d="M262.05,14.58a5.21,5.21,0,0,0,0,10.42h18.06a4,4,0,0,0,1.2-7.74,4.9,4.9,0,0,0-3.18-4.21,5.6,5.6,0,1,0-11.07,0,5.51,5.51,0,0,0-2.21,2.35,5.16,5.16,0,0,0-2.8-.82Z" transform="translate(-16.45 -5.64)"/><path class="cls-1" d="M323.81,52.76a3.22,3.22,0,1,1,0,6.43H312.67a2.45,2.45,0,0,1-.75-4.78,3,3,0,0,1,2-2.59,3.46,3.46,0,1,1,6.83,0,3.42,3.42,0,0,1,1.36,1.46,3.22,3.22,0,0,1,1.73-.51Z" transform="translate(-16.45 -5.64)"/><path class="cls-1" d="M312.58,20.75a5,5,0,0,0-4.94,4.95,4.85,4.85,0,0,0,.18,1.33,3.17,3.17,0,0,0,.38,6.31h13.63a3.25,3.25,0,0,0,.62-6.45,4.47,4.47,0,0,0-4.44-5,4.55,4.55,0,0,0-1.85.4,4.94,4.94,0,0,0-3.58-1.53Z" transform="translate(-16.45 -5.64)"/><path class="cls-1" d="M405.57,19.1a8.22,8.22,0,0,1,8.22,8.22,8.42,8.42,0,0,1-.3,2.21A5.26,5.26,0,0,1,412.85,40H390.2a5.41,5.41,0,0,1-1-10.72,7.42,7.42,0,0,1,10.45-7.66,8.2,8.2,0,0,1,5.95-2.54Z" transform="translate(-16.45 -5.64)"/><path class="cls-1" d="M109.11,7.81a6.69,6.69,0,0,1,4.26,1.52,4,4,0,0,1,7,2.91,4.08,4.08,0,0,1,6.25,3.18h0a2.9,2.9,0,1,1,0,5.79H109.11a6.7,6.7,0,1,1,0-13.4Z" transform="translate(-16.45 -5.64)"/><path class="cls-1" d="M21.66,13.62a5.21,5.21,0,0,0,0,10.42H39.72a4,4,0,0,0,1.2-7.74,4.86,4.86,0,0,0-3.18-4.2,5.6,5.6,0,1,0-11.07,0,5.43,5.43,0,0,0-2.2,2.35,5.2,5.2,0,0,0-2.81-.82Z" transform="translate(-16.45 -5.64)"/><path class="cls-1" d="M72.2,19.8a4.94,4.94,0,0,0-5,4.94,4.85,4.85,0,0,0,.18,1.33,3.17,3.17,0,0,0,.38,6.31H81.44a3.25,3.25,0,0,0,.62-6.45,4.47,4.47,0,0,0-4.44-5,4.55,4.55,0,0,0-1.85.4A4.93,4.93,0,0,0,72.2,19.8Z" transform="translate(-16.45 -5.64)"/><path class="cls-1" d="M165.18,18.14a8.22,8.22,0,0,1,8.22,8.22,8,8,0,0,1-.3,2.21,5.26,5.26,0,0,1-.64,10.49H149.81a5.41,5.41,0,0,1-1-10.72A7.43,7.43,0,0,1,156.16,20a7.32,7.32,0,0,1,3.07.66,8.23,8.23,0,0,1,6-2.54Z" transform="translate(-16.45 -5.64)"/><path class="cls-1" d="M108.2,70.21a6.61,6.61,0,0,1,6.6,6.6,6.81,6.81,0,0,1-.24,1.77A4.23,4.23,0,0,1,114,87H95.87A4.34,4.34,0,0,1,95,78.4a6,6,0,0,1,8.39-6.15,6.6,6.6,0,0,1,4.77-2Z" transform="translate(-16.45 -5.64)"/><path class="cls-1" d="M46.69,64.16a8.22,8.22,0,0,1,8.22,8.22,8,8,0,0,1-.3,2.2A5.27,5.27,0,0,1,54,85.08H31.32a5.41,5.41,0,0,1-1-10.73A7.43,7.43,0,0,1,37.67,66a7.3,7.3,0,0,1,3.07.67,8.2,8.2,0,0,1,5.95-2.54Z" transform="translate(-16.45 -5.64)"/></svg>