<svg id="Layer_1" data-name="Layer 1" xmlns="http://www.w3.org/2000/svg" viewBox="0 0 40.57 42.41"><defs><style>.cls-1{fill:#d14924;}</style></defs><title>ingredients</title><path class="cls-1" d="M49,19.11a2,2,0,0,0,.15-.54c.94-2.49-1.8-4.49-3.76-5.49a11.35,11.35,0,0,1-3.83-2.65A3.28,3.28,0,0,0,38.47,9a5,5,0,0,0-3.08,2.42,9.48,9.48,0,0,0-.72,1.78,5.6,5.6,0,0,1-1.52,2.39,7.65,7.65,0,0,0-2.32,3.22,6.11,6.11,0,0,0,.34,3.84.33.33,0,0,0,.11.15,2.13,2.13,0,0,0,.16.57,14.62,14.62,0,0,0-2.66,3.11,24,24,0,0,1-2.28,2.84,6.8,6.8,0,0,0-1.64,2.35c-.59,1.77.92,2.74,2.51,2.65a8.86,8.86,0,0,0,2.18-.5A7,7,0,0,0,28.84,36c0,.16.16.25.29.22a1.45,1.45,0,0,0,.35-.12,18.49,18.49,0,0,0-.42,7.1c.32,1.73,1.16,3.84,3.07,4.27a2.12,2.12,0,0,0,2.17-.91.56.56,0,0,0,.05-.08.17.17,0,0,0,.1,0c2,.25,2.57-2,2.63-3.57a21.24,21.24,0,0,1,.16-3.19,20.32,20.32,0,0,1,1.56-4.54c.05-.1.1-.19.14-.29a1.58,1.58,0,0,0,.91-1.72c.32-.59.64-1.18.91-1.79A16,16,0,0,0,42,27.38a19.91,19.91,0,0,0,.21-4.23c0-.32,0-.65-.07-1C44.54,21.9,47.88,21.83,49,19.11Zm-5.3-6.17.41.22c.36.19.76.39,1.17.62A1.2,1.2,0,0,1,44,14.2C43.4,14,43.51,13.37,43.69,12.94Zm-7-2c.48.63-.26,2.24-1,1.71A5.7,5.7,0,0,1,36.64,10.94ZM33,16.68a1.37,1.37,0,0,1,.18.55,1.44,1.44,0,0,1-.26.75,1.26,1.26,0,0,1-.61.48.91.91,0,0,1-.63,0A5.73,5.73,0,0,1,33,16.68ZM31.44,19a.19.19,0,0,0,0-.07,1.47,1.47,0,0,0,1.83-.42c.48-.53.84-1.78.15-2.3l.16-.14a6.06,6.06,0,0,0,1.71-2.68,1.83,1.83,0,0,0,.08-.25,1.2,1.2,0,0,0,1.6-.41,1.81,1.81,0,0,0,.1-2.24,5.17,5.17,0,0,1,.74-.53c1.39-.82,2.55.07,3.43,1.13a7.36,7.36,0,0,0,2.07,1.64,1.28,1.28,0,0,0,.26,2,1.77,1.77,0,0,0,2.29-.59c1.31.77,2.56,1.77,2.81,3.15-1.12-1-3.91-.92-5-.86a22.55,22.55,0,0,0-4.11.64v0c-1.35-2-4.65-1-4.09,1.5-.34.16-.69.34-1,.52a7,7,0,0,0-3,2.56A5.48,5.48,0,0,1,31.44,19Zm7.47-1.78a20.52,20.52,0,0,0-3,1.11A1.67,1.67,0,0,1,38.91,17.23Zm-6.33,6.09a1.32,1.32,0,0,1-.45,1.32A.75.75,0,0,1,31,24.59,5.47,5.47,0,0,1,32.58,23.32ZM26.9,29.84c.47-.51.9-1.05,1.32-1.59.17.21.38.33.4.66a1.37,1.37,0,0,1-.35.92c-.38.46-1.1.85-1.49.21l0,0Zm2.18,3.37a1.15,1.15,0,0,1,.81-1,1,1,0,0,1,1,.58A17.33,17.33,0,0,0,29.08,33.21Zm.27,2.47a9.09,9.09,0,0,1,.74-2,8.71,8.71,0,0,1,1.73-.33l.43.09A23.53,23.53,0,0,1,32.06,36a4.36,4.36,0,0,1-.61-1.07.25.25,0,0,0-.43,0c-.13.23-.21.48-.32.72a2.89,2.89,0,0,1-.1-.6c0-.19-.27-.35-.42-.17A3.84,3.84,0,0,1,29.35,35.68Zm3,.8c.46-.93.19-2,.39-2.94a10.08,10.08,0,0,1,2.33.7l.62.29a24.28,24.28,0,0,0-1.48,2.58A12.25,12.25,0,0,0,32.86,42a7,7,0,0,1-.81-1.77,11.41,11.41,0,0,1-.29-3.86,1.12,1.12,0,0,0,.28.18A.26.26,0,0,0,32.38,36.48Zm1.49,9.42c-.12.84-1.12,1.07-1.8.92-1.67-.36-2.24-2.76-2.47-4.16-.4-2.32.18-4.57.36-6.86l.22-.22a4.66,4.66,0,0,0,.26.77c.09.18.34.13.44,0a4,4,0,0,0,.37-.75.8.8,0,0,0,.08.16.11.11,0,0,0,0,.08,10.89,10.89,0,0,0,.52,5.57,11,11,0,0,0,1.45,2.45A2.79,2.79,0,0,1,33.87,45.9ZM36.42,41c-.06,1.38.38,5-1.83,4.9a3.44,3.44,0,0,0-.6-2.12c-.16-.27-.32-.52-.49-.76a.33.33,0,0,0,0-.15,13.32,13.32,0,0,1,1.84-6.42c.3-.56.62-1.1,1-1.64a4.51,4.51,0,0,0,1.77.35h.07A15.47,15.47,0,0,0,36.42,41Zm1.43-6.57c-1.11,0-2-.71-3-1.08a8,8,0,0,0-3.32-.58,1.68,1.68,0,0,0-1.74-1c-.77.12-1.1.93-1.18,1.61l-.72.18c-1,.22-2.52.17-2.51-1.15a3.07,3.07,0,0,1,1-1.95c.57.88,1.64.59,2.28-.09a2.15,2.15,0,0,0,.6-1.34,1.34,1.34,0,0,0-.67-1.21L30,25.82c.19-.26.41-.56.65-.85a1.2,1.2,0,0,0,1.7.25,1.82,1.82,0,0,0,.8-2.1,1.93,1.93,0,0,1,.41-.06c1,0,1.49.84,1.78,1.88a1,1,0,0,0-1,1.17,1.47,1.47,0,0,0,1.5,1.37.83.83,0,0,0,0,.15c.46,1.53,1.56,2.57,2.41,3.87l.18.28a.94.94,0,0,0-.62,1.2,1.33,1.33,0,0,0,1.17,1A1.42,1.42,0,0,1,37.85,34.41Zm-2.11-7.58a.82.82,0,0,1-.76-.67.6.6,0,0,1,.49-.77C35.58,25.89,35.67,26.39,35.74,26.83Zm-.17-3.27A11.16,11.16,0,0,0,38,23.17a4.44,4.44,0,0,0,1.55-.64,22.85,22.85,0,0,1-.16,2.61,19.21,19.21,0,0,1-1.16,4.95,11,11,0,0,1-.73-1,7.6,7.6,0,0,1-1.1-2.88A7.25,7.25,0,0,0,35.57,23.56Zm3.2,9.68a.63.63,0,0,1-.3-.36c-.13-.32-.07-.61.24-.73a4.36,4.36,0,0,1,.41,1.11s0,0,0,0A.59.59,0,0,1,38.77,33.24Zm2.63-6.53a17.15,17.15,0,0,1-1.8,5.58,6.35,6.35,0,0,0-.92-1.54.36.36,0,0,0,0-.09,19.34,19.34,0,0,0,1.34-5.76c.18-1.69.39-3.81-.44-5.39a3.39,3.39,0,0,1,.7-.25A2.69,2.69,0,0,1,41,19.2c.11,1.22.39,2.43.47,3.66A19.82,19.82,0,0,1,41.4,26.71Zm4.21-5.65a17.81,17.81,0,0,1-3.57.46,12.22,12.22,0,0,0-.49-2.27,8,8,0,0,1,.93.25c.3.1.46-.34.21-.49-1.24-.78-3.8-.61-4.49.88-.08.19.11.45.31.31s.43-.3.64-.43a9.23,9.23,0,0,1,.32,1.95,7.24,7.24,0,0,1-2.14.87c-.81.16-1.64.17-2.46.28a2.47,2.47,0,0,0-3,.19c-.42-1.69,1.76-2.87,3-3.55a20,20,0,0,1,6.77-2.24c1.11-.16,7.44-1,6.77,1.46C48.14,19.91,46.66,20.72,45.61,21.06Z" transform="translate(-24.73 -9)"/><path class="cls-1" d="M65.25,40.22a8.84,8.84,0,0,1-.58-1.2c-.12-.27-.19-.56-.54-.57a3.86,3.86,0,0,0-1.27.48l-1.54.64a16,16,0,0,0-1.51-1.32A5.24,5.24,0,0,0,55.64,37a4,4,0,0,0-3,2.38,2.31,2.31,0,0,0,0,1.17,28.41,28.41,0,0,0-4.73,2.48c-1.4.92-2.73,2.31-2.63,4.1a4.72,4.72,0,0,0,.24,1.21c-.55.24-1.12.71-.82,1.35a.92.92,0,0,0,.72.44,1.46,1.46,0,0,0,.93-.25,3.66,3.66,0,0,0,2.46,1.46,9.72,9.72,0,0,0,4.16-.68,21.82,21.82,0,0,0,4.13-1.92,1.57,1.57,0,0,0,.69.5,4.1,4.1,0,0,0,3.78-.84c1.73-1.35,2.19-5,1.08-7a7.68,7.68,0,0,0,2.5-.77A.34.34,0,0,0,65.25,40.22Zm-1.59-.79s.18-.06.3-.12a1.93,1.93,0,0,0,.14.24,6.23,6.23,0,0,0,.36.68,11.38,11.38,0,0,1-1.16.41c-.32.1-.68.15-1,.27a4.79,4.79,0,0,0-.44-.7C62.47,40,63.06,39.69,63.66,39.43ZM45.48,49.6a.59.59,0,0,1-.23,0l-.09-.08a.13.13,0,0,1,0-.12.45.45,0,0,1,.07-.19,1.15,1.15,0,0,1,.47-.33,6,6,0,0,0,.3.56A1.24,1.24,0,0,1,45.48,49.6Zm4.08,1c-2.07.11-3.57-1.94-3.45-3.9.09-1.54,1.78-2.77,3-3.52s2.54-1.32,3.74-2.09a1.55,1.55,0,0,0,.42.52,1.62,1.62,0,0,0,1.21,2.5,1.14,1.14,0,0,0,1,1.85,1.32,1.32,0,0,0,1.5,1.87.9.9,0,0,0-.07.27C54.5,49.17,52.21,50.45,49.56,50.6Zm12.5-4.06a3.36,3.36,0,0,1-2.22,2.11c-.71.24-2.82.28-2.28-1,.06-.15-.1-.26-.23-.23a.25.25,0,0,0-.13,0c-.69,0-2-.51-1.22-1.4a.24.24,0,0,0-.16-.4c-.83-.11-1.3-.74-.83-1.52a.19.19,0,0,0,0-.26.27.27,0,0,0-.25-.21A1.16,1.16,0,0,1,54,41.69a.38.38,0,0,0-.24-.64c-.26,0-1.06-1.07.22-2.37a3.66,3.66,0,0,1,3.38-.89,6.29,6.29,0,0,1,2.77,1.67c.55.51,1,1.19,1.57,1.7,0,0,0,0,0,0A6.84,6.84,0,0,1,62.06,46.54Z" transform="translate(-24.73 -9)"/></svg>