<svg id="Layer_1" data-name="Layer 1" xmlns="http://www.w3.org/2000/svg" viewBox="0 0 33.23 40"><defs><style>.cls-1{fill:#d45c33;}</style></defs><title>job</title><path class="cls-1" d="M41.7,49a4,4,0,0,1-3.28-1.38l-.05-.09,0,.06a2.83,2.83,0,0,1-.4.37l0,0a5.54,5.54,0,0,1-2.89.89h-.35a8.63,8.63,0,0,1-5.09-1.62l0,0c-3.2-2.89-3.35-6.41-2.37-9.9a44.66,44.66,0,0,1,3.36-7.67l1.1-2.19v0l.05-.08,0-.07.12-.16,0,0h.05L32,27a.54.54,0,0,1,.43,0h0l2.49.47c.89.14,1.79.26,2.68.36l1.71.16,0-.05a4.12,4.12,0,0,1,.65-.67l.07,0-.23,0a55.22,55.22,0,0,1-7.83-1.09.56.56,0,0,1-.44-.43V25.6h0c-1.52-3.44-1.95-7.16.27-10.88l.39-.61,0-.39a9.13,9.13,0,0,1,1.45-4.26.57.57,0,0,1,.44-.2c1.33,0,2.78,1.17,3.87,1.83l.31.17.71-.09a21.83,21.83,0,0,1,4.2,0l1.49.16.74-.64A6.56,6.56,0,0,1,48.39,9a.58.58,0,0,1,.44.1,8.46,8.46,0,0,1,2.09,3.48l.13.3.52.59a13.59,13.59,0,0,1,.91,1.24l.38.68.29-.16a4.54,4.54,0,0,1,1.09-.38l.5-.06v0a.55.55,0,0,1,.61-.5.58.58,0,0,1,.38.19l.09.31.77.08a3.62,3.62,0,0,1,.56.17l.51.23.22-.21a.64.64,0,0,1,.43,0,.56.56,0,0,1,.27.74l0,.09.27.26c.94,1.09,1.36,2.8.84,5.14-.91,4.06-3.54,6.81-3.85,11.45l0,.84.68,1.58c1.65,4.18,2.25,8.57-1.63,12.07l0,0a8.54,8.54,0,0,1-4.88,1.62h-.24a5.82,5.82,0,0,1-3.2-.91l0,0a3.29,3.29,0,0,1-.72-.78l-.18-.41-.15.33A4.11,4.11,0,0,1,42.31,49,6,6,0,0,1,41.7,49Zm.21-1.15h.26l.89-.22L43,47.44a3.41,3.41,0,0,0,0-.91,2.31,2.31,0,0,0-.23-.67.55.55,0,0,1,.25-.75.56.56,0,0,1,.75.24,3.56,3.56,0,0,1,.33,1l0,.58,0,0a2.16,2.16,0,0,0,.52-1.19c.32-3-1.31-4.73-3.28-6.37a37.52,37.52,0,0,1-2.93-2.51,5.92,5.92,0,0,1-1.77-3.28.57.57,0,0,1,.48-.63.56.56,0,0,1,.63.48,4.79,4.79,0,0,0,1.46,2.66c.81.82,1.8,1.56,2.84,2.42a9.3,9.3,0,0,1,3.55,4.93l.08.53.22-.34a3.89,3.89,0,0,1,3.5-.9.56.56,0,0,1,.47.63.54.54,0,0,1-.63.47,3,3,0,0,0-2.41.45l-.14.17.29-.1.11,0a.55.55,0,0,1,.62.49.57.57,0,0,1-.44.61h0l-.07,0a.85.85,0,0,0-.15.09,1,1,0,0,0-.33.35.61.61,0,0,1-.2.19l-.11,0,.08.27a2.2,2.2,0,0,0,.35.51l.24.22h0V47a.5.5,0,0,1,.08-.2,3.17,3.17,0,0,1,1-1,2.52,2.52,0,0,1,.47-.26,1.6,1.6,0,0,1,.41-.13h.06a.55.55,0,0,1,.61.49.56.56,0,0,1-.49.62h0l-.11,0-.29.16a2,2,0,0,0-.65.68l-.12.11h0a7.18,7.18,0,0,0,5.64-.86l.41-.28.64-.64c2.64-2.92,2.15-6.48.64-10.25l-.67-1.55v-.12l0-.12c0-5.52,3-8.53,3.9-12.65a5.07,5.07,0,0,0-.29-3.75L58,17l-.16.34a.56.56,0,0,1-.53.32.54.54,0,0,1-.21-.05.56.56,0,0,1-.27-.74l.29-.61-.7-.28-.69-.11-.07.69a.55.55,0,0,1-.55.5h0a.55.55,0,0,1-.5-.61l0-.5-.51.11-.75.36.4,1a9.32,9.32,0,0,1-1,7.76l-.48.75.21,1.46a.56.56,0,0,1-.11.42l-.3.17h0L52,28h0l-.13.07c-.93.25-1.85.46-2.78.62l-2.3.32.23.64a4.46,4.46,0,0,1,.11,1,4.33,4.33,0,0,1-8.65,0,4.27,4.27,0,0,1,.24-1.44l0-.12L37.52,29c-.91-.1-1.82-.23-2.73-.38l-2.27-.42-1,2a42.4,42.4,0,0,0-3.26,7.44c-.86,3-.76,5.89,1.55,8.29l.47.46.85.53a6.94,6.94,0,0,0,5.48.51l.65-.34.24-.22a2.16,2.16,0,0,0,.34-.51l.11-.33-.65-.15a1.58,1.58,0,0,0-.79.16.57.57,0,0,1-.75-.27A.56.56,0,0,1,36,45a2.78,2.78,0,0,1,1.31-.27l.54.08,0-.13c-.37-.67-1.26-1.13-2.78-.91a.56.56,0,0,1-.64-.47.57.57,0,0,1,.48-.63c3.27-.48,4.66,1.68,4.16,3.58l-.08.22.05,0a.62.62,0,0,1,.14.18,2,2,0,0,0,1.15,1l.5.12,0-.49a1.75,1.75,0,0,0-.2-.75.56.56,0,1,1,1-.51A3.05,3.05,0,0,1,42,47.21Zm.89-14a3.22,3.22,0,1,0-3.21-3.21A3.21,3.21,0,0,0,42.8,33.86ZM46.21,28l2.68-.36,2.42-.54-.11-.79-.86.21a32.7,32.7,0,0,1-4.35.67l-.56,0,.12.09a4.12,4.12,0,0,1,.65.67Zm-4.29-1.77a35.61,35.61,0,0,0,7.19-.59l2.39-.55.28-.43c2.46-4.22,1.17-8.07-1.61-11.07a.38.38,0,0,1-.09-.13,13.93,13.93,0,0,0-1.59-3.12l-.16-.15-.12,0a4.82,4.82,0,0,0-1.23.73c-.59.46-1.11.94-1.66,1.4a.58.58,0,0,1-.42.12l-1.24-.13-.12,1.4a.56.56,0,0,1-.55.5h-.06a.55.55,0,0,1-.5-.61l.12-1.37-.94-.06-1.13,0,.13,1.41a.56.56,0,0,1-.5.61h-.06a.56.56,0,0,1-.55-.5l-.13-1.45-1,.1a.54.54,0,0,1-.33-.05,23.81,23.81,0,0,0-3.42-1.89l-.16,0-.08.12a10.23,10.23,0,0,0-1,3.79.56.56,0,0,1-.1.28,9.88,9.88,0,0,0-.91,9.89l.26.63,2.07.39A49.13,49.13,0,0,0,41.92,26.21Zm-7.28-3.69a.57.57,0,0,1-.47-.24.57.57,0,0,1,.14-.78l.9-.62L33.88,21h-.06a.56.56,0,0,1,0-1.11l1.33-.09-.93-.44a.56.56,0,0,1,.47-1l2.81,1.31a.56.56,0,0,1,.09,1L35,22.42A.71.71,0,0,1,34.64,22.52Zm15,0a.75.75,0,0,1-.32-.1l-2.61-1.83a.56.56,0,0,1,.08-1l2.82-1.31a.56.56,0,0,1,.47,1l-.94.44,1.34.09a.56.56,0,0,1,0,1.11h-.06L49,20.88l.9.62a.55.55,0,0,1,.14.78A.56.56,0,0,1,49.6,22.52Zm-6.07-.34a2.21,2.21,0,0,1-1.31-.43,2.33,2.33,0,0,1-.28-.26l-.06-.06,0,.05a2.09,2.09,0,0,1-.28.24,2.51,2.51,0,0,1-2.19.3.55.55,0,0,1-.4-.68.56.56,0,0,1,.68-.39,1.44,1.44,0,0,0,1.25-.12,1,1,0,0,0,.39-.8A.56.56,0,0,1,42.4,20a1.39,1.39,0,0,0,.49.89,1.36,1.36,0,0,0,1.29.1A.55.55,0,1,1,44.52,22,3,3,0,0,1,43.53,22.18Zm-5.8-4.34a.55.55,0,0,1-.5-.36.56.56,0,0,1,.31-.72A4.79,4.79,0,0,1,39,16.42a3.76,3.76,0,0,1,1.54.19.56.56,0,0,1-.37,1.06,2.59,2.59,0,0,0-1.09-.14A3.59,3.59,0,0,0,38,17.8.57.57,0,0,1,37.73,17.84Zm5.72-.15a.56.56,0,0,1-.18-1.08,4.66,4.66,0,0,1,1.44-.34,3.76,3.76,0,0,1,1.54.19.57.57,0,0,1,.35.71.56.56,0,0,1-.71.35,2.65,2.65,0,0,0-1.1-.14,3.72,3.72,0,0,0-1.12.27A.54.54,0,0,1,43.45,17.69Z" transform="translate(-26.64 -9)"/></svg>