<svg id="Layer_1" data-name="Layer 1" xmlns="http://www.w3.org/2000/svg" viewBox="0 0 52.93 30.28"><defs><style>.cls-1{fill:#d45c33;}</style></defs><title>recipies</title><path class="cls-1" d="M56.14,39.52h-.28l-.51-.07-.24,0a2.8,2.8,0,0,1-1.84-.62l-.21-.17-.21,0a2.27,2.27,0,0,1-1.17-.78l-.21-.25h-.11A1.36,1.36,0,0,1,50.3,37l-.15-.22h-.09a2.4,2.4,0,0,1-1.22-.8l-.3-.37-.19,0a2.67,2.67,0,0,1-1.22-.71l-.23-.29-.12,0a2,2,0,0,1-1-.64l-.29-.34-.12-.18a1.85,1.85,0,0,1-.28-.88v-.28L45,31.88a2.67,2.67,0,0,1,0-.8l.06-.24L45,30.76a1.62,1.62,0,0,1-.11-.77v-.11l-.28.1a5.48,5.48,0,0,1-3.87-.51.35.35,0,0,1-.11-.55A5.11,5.11,0,0,1,44.37,27h.13l-.83-1.83a.34.34,0,0,1,.3-.49A2.88,2.88,0,0,1,46.69,26l.32.46.79-.33a8.19,8.19,0,0,1,5.63,0l.38.15,0-.34a3.21,3.21,0,0,1,.13-.83L54,25l-2.23-1.4a.34.34,0,0,1,.17-.64,12.36,12.36,0,0,0,2.81-.37l.89-.25,1-.44c5.29-1.88,9.78,1.66,13.86,6.84l0,.05c.84,1.54.42,2.45-.39,3.1l-.33.24-.55.54a4.75,4.75,0,0,1-1.27.74l-.53.15-.1.39a1.7,1.7,0,0,1-.27.39,3.15,3.15,0,0,1-.72.54l-.1,0-.09.06a2,2,0,0,1-.91.3H65a3.64,3.64,0,0,1-.56,0l-.23,0h-.09a2.71,2.71,0,0,1-1.73-.42l-.25-.19,0,.32a2.09,2.09,0,0,1-.81,1.21l-.34.25-.55.54a4.47,4.47,0,0,1-1.27.73l-.52.16-.06.28a1.82,1.82,0,0,1-.7.82l-.45.27-.2.13a1.94,1.94,0,0,1-.79.22Zm.22-.7a1.22,1.22,0,0,0,.66-.24l.06,0a2.18,2.18,0,0,0,.65-.46l.14-.19-.17,0a3.77,3.77,0,0,1-2.79-1.17l0,0a51.13,51.13,0,0,0-5.35-5.61c-1.45-1.21-2.59-1.79-3.41-1.71l-.32.07-.08,0-.08.32a.9.9,0,0,0,.1.76.33.33,0,0,1,0,.29,1.81,1.81,0,0,0,0,1.17.31.31,0,0,1,0,.13,1.25,1.25,0,0,0,.26.93l0,0a1.54,1.54,0,0,0,1,.76.35.35,0,0,1,.25.14,2,2,0,0,0,1.41.91.32.32,0,0,1,.22.13c.51.65.92,1,1.35,1a.37.37,0,0,1,.31.18c.27.47.47.7.92.64a.34.34,0,0,1,.32.13c.42.53.75.91,1.33,1a.4.4,0,0,1,.21.09,2.14,2.14,0,0,0,1.86.66h.12A4,4,0,0,0,56.36,38.82Zm1.42-1.6a3.76,3.76,0,0,0,2.7-1.36l.07-.07a1.44,1.44,0,0,0,.75-2l-.22-.46-.79-1-.75-.87,0,0-.2,0a.56.56,0,0,0-.15.1,1.06,1.06,0,0,0-.22.52h0l.1.11c.32.38.63.76.94,1.16a.36.36,0,0,1-.07.49.4.4,0,0,1-.26.06.36.36,0,0,1-.23-.13c-.29-.39-.6-.76-.91-1.12l-.12-.14-.22,0a2.86,2.86,0,0,0-1.68.24,1.49,1.49,0,0,0-.69,1.29.35.35,0,0,1-.69,0,2.16,2.16,0,0,1,1-1.84,2.91,2.91,0,0,1,1.41-.35h.15l-.16-.16c-.35-.36-.73-.7-1.11-1l-.26-.22h0a1.93,1.93,0,0,0-1.51.08,2.51,2.51,0,0,0-1,1.1.36.36,0,0,1-.27.18.35.35,0,0,1-.2-.05.35.35,0,0,1-.14-.47,3.33,3.33,0,0,1,1.27-1.38,2.28,2.28,0,0,1,.68-.23h.1l-.14-.1a15,15,0,0,0-1.35-.76l-.25-.11-.39,0a2,2,0,0,0-.9.25.86.86,0,0,0-.44.69.36.36,0,0,1-.32.31h-.07a.35.35,0,0,1-.3-.39,1.55,1.55,0,0,1,.77-1.21l.39-.16-.41-.12a8.68,8.68,0,0,0-1-.23l-.2,0h0a2.49,2.49,0,0,0-.8.38.56.56,0,0,0-.22.45.35.35,0,0,1-.35.35.34.34,0,0,1-.35-.34,1.22,1.22,0,0,1,.28-.8l.17-.16H49.1a11.32,11.32,0,0,0-2.21.19.34.34,0,0,1-.4-.28.32.32,0,0,1,.15-.35l.11-.05-.06,0a.24.24,0,0,1-.09-.08c-.6-.85-.94-1.56-2.07-1.68l.83,1.82a.35.35,0,0,1-.35.49A4.16,4.16,0,0,0,41.58,29l0,0,.12,0a4.12,4.12,0,0,0,3.84-.22s0,0,.06,0c2.13-.77,5.32,2.27,8.5,5.88l1.35,1.56.29.26a3,3,0,0,0,1.64.67A3.24,3.24,0,0,0,57.78,37.22Zm7.44-2.67a1.21,1.21,0,0,0,.66-.23l.05,0a2.15,2.15,0,0,0,.66-.46l.13-.19-.17,0a3.75,3.75,0,0,1-2.79-1.16v0c-.72-.85-1.43-1.66-2.12-2.41l-.45-.49-.49,2.25,1,1.15,0,.05a3.87,3.87,0,0,1,.26.55l.06.18h0a.3.3,0,0,1,.25.09,2.17,2.17,0,0,0,1.87.65h.12A3.18,3.18,0,0,0,65.22,34.55ZM66.63,33a3.77,3.77,0,0,0,2.7-1.35.27.27,0,0,1,.08-.07,1.44,1.44,0,0,0,.75-2l-.22-.45-.8-1a28.46,28.46,0,0,0-2.32-2.51l-.56-.5-1.13.57a13.11,13.11,0,0,0-3.34,2.72l-.35.42.37.38,1.11,1.23L64.26,32l.29.26a3,3,0,0,0,2.08.69Zm-.1-1.08a.35.35,0,0,1-.36-.25.34.34,0,0,1,.23-.43,6.58,6.58,0,0,0,1.48-.64,1.25,1.25,0,0,0,.6-.65.35.35,0,0,1,.67.18c-.24.85-1.3,1.39-2.55,1.77Zm-8.14-.31v0a1.33,1.33,0,0,1,.26-.39.69.69,0,0,1,.18-.16l.14-.07-.19-.21c-.5-.52-1-1-1.51-1.45L57,29.07h-.13l-.11.05a.32.32,0,0,0-.14.14.9.9,0,0,0-.1.27l0,.3.48.39c.4.34.79.7,1.16,1.08Zm1.74-.42L60.6,29l-.31-.33c-.44-.45-.87-.86-1.29-1.24h0l-.05.12c-.13.31-.2.51-.27.73a6.41,6.41,0,0,0-.16.89l0,.3,0,0c.54.52,1.07,1.07,1.59,1.66ZM65,30.29a.34.34,0,0,1-.35-.26.35.35,0,0,1,.26-.42A6,6,0,0,0,66.47,29a2.15,2.15,0,0,0,1-1,.35.35,0,0,1,.64.27,2.79,2.79,0,0,1-1.25,1.35,6.27,6.27,0,0,1-1.77.66Zm-9.09-.93.06-.21a2.56,2.56,0,0,1,.11-.24,1.18,1.18,0,0,1,.17-.22l.18-.13-.29-.22a11.78,11.78,0,0,0-1.95-1.18L53.91,27l-.09.11a.83.83,0,0,0-.15.42,1.4,1.4,0,0,0,0,.29l0,.23.06,0a14.73,14.73,0,0,1,2,1.16Zm2-.51v-.13a6.11,6.11,0,0,1,.49-1.62l.08-.21,0,0c-1.64-1.39-2.9-1.94-3.73-1.64h-.08v0a4.3,4.3,0,0,0-.11.69.88.88,0,0,0,.14.56.69.69,0,0,1,0,.13h0l.52.27a15.3,15.3,0,0,1,2.52,1.81Zm5.69-.18a.35.35,0,0,1-.35-.27.36.36,0,0,1,.26-.42A5.77,5.77,0,0,0,65,27.4a2.15,2.15,0,0,0,1-1,.35.35,0,1,1,.65.27A2.93,2.93,0,0,1,65.39,28a6.79,6.79,0,0,1-1.78.66ZM61,28.33l.91-1a13.35,13.35,0,0,1,2.72-2.12l1.1-.57-.45-.36c-.26-.2-.53-.39-.8-.57l-.53-.33-1.16.57a10.85,10.85,0,0,0-3.11,2.45l-.3.36.29.27c.36.32.72.67,1.08,1Zm-8-.56v-.28a1.49,1.49,0,0,1,.13-.49l.13-.22-.27-.1a8,8,0,0,0-2-.35h-.51v.06a1.94,1.94,0,0,0,0,.24,1,1,0,0,0,.24.47l0,.07.49.08a10.06,10.06,0,0,1,1.11.3Zm-5.82-.62.51-.08Q48.3,27,48.9,27l1,0-.1-.29a1.55,1.55,0,0,1,0-.37v0h-.16a8.81,8.81,0,0,0-2.12.6Zm11.65-.85.32-.38A11.9,11.9,0,0,1,63,23l.17-.08-.32-.16c-.27-.12-.55-.23-.82-.33l-.56-.15,0,.12a3.08,3.08,0,0,1-.83,1.1,6.46,6.46,0,0,1-1.61,1,.35.35,0,0,1-.14,0,.33.33,0,0,1-.32-.21.34.34,0,0,1,.17-.46,4.36,4.36,0,0,0,1.92-1.42l.17-.3-.44-.07a8.27,8.27,0,0,0-.86-.05h-.18l-.16.3a2.54,2.54,0,0,1-.84.76,5.21,5.21,0,0,1-1.44.54h-.07a.34.34,0,0,1-.35-.27.36.36,0,0,1,.26-.42,4.39,4.39,0,0,0,1.25-.46,2.22,2.22,0,0,0,.45-.34l0,0-.25,0a9.12,9.12,0,0,0-2.26.76l0,0a13.66,13.66,0,0,1-1.91.47l-.9.12,1.56,1,.29-.07c1-.11,2.32.55,3.7,1.66Z" transform="translate(-18.07 -9.24)"/><path class="cls-1" d="M25.07,35.34a7.27,7.27,0,0,1-3.69-1L20.83,34h0a.53.53,0,0,1-.1-.07,4,4,0,0,0-.48-.52.36.36,0,0,1-.15-.3,54.39,54.39,0,0,0,.05-6.1l-.06-.35L20,26.33A2.19,2.19,0,0,1,20,26c0-1.91,2.7-3.23,5.65-3.23a9.82,9.82,0,0,1,1.09.06l1,.16,0-.22c0-1.91,2.71-3.23,5.66-3.23S39,20.82,39,22.74a2,2,0,0,1,0,.35l0,.12v.1a61,61,0,0,0-.1,6.7.38.38,0,0,1-.11.3,9.22,9.22,0,0,1-5.77,1.8,8.41,8.41,0,0,1-1.73-.19l-.14,0v.57l.06.79a.36.36,0,0,1-.11.29,9.22,9.22,0,0,1-5.4,1.8Zm.25-.69a9.16,9.16,0,0,0,4.88-1.36l.22-.17,0-.43-.16.11a6.63,6.63,0,0,1-1.72.79l-.1,0a.35.35,0,0,1-.33-.25.36.36,0,0,1,.24-.44,6,6,0,0,0,1.54-.71l.51-.34v-.45c0-1.1.06-2.24.12-3.38v-.41l-.22.21a7.67,7.67,0,0,1-4.65,1.37A7.64,7.64,0,0,1,21,27.84l-.1-.09,0,.51v.6l.48.26a5.35,5.35,0,0,0,1.54.51.37.37,0,0,1,.29.41.36.36,0,0,1-.33.29h-.07a6.12,6.12,0,0,1-1.74-.57l-.19-.11,0,.59c0,.66-.06,1.32-.08,2v.71l0,0a3.47,3.47,0,0,1,.36.41l0,0h0A6.44,6.44,0,0,0,25.32,34.65Zm7.51-3.24A8.88,8.88,0,0,0,38,30l.14-.11,0-.43-.16.11a6.63,6.63,0,0,1-1.72.79l-.1,0a.36.36,0,0,1-.33-.26.35.35,0,0,1,.24-.43A6,6,0,0,0,37.54,29l.51-.34v-.82c0-.49,0-1,0-1.5l.09-1.91-.22.2A7.67,7.67,0,0,1,33.3,26a9.6,9.6,0,0,1-2-.2h-.07l0,.2a2.19,2.19,0,0,1,0,.36l0,.11v.1c0,1.19-.1,2.35-.15,3.47l0,1.16.27.07A8.3,8.3,0,0,0,32.83,31.41Zm-7.21-2.9c2.93,0,5-1.27,5-2.54,0-.79-.8-1.59-2.11-2.07l-.32-.11-.12,0-.05,0-.36-.1a8.81,8.81,0,0,0-2-.22c-2.74,0-4.7,1.12-4.93,2.31l0,.23,0,.05.06.41v0C21.19,27.55,23.08,28.51,25.62,28.51Zm0-1.3a4.87,4.87,0,0,1-1.9-.36,2.19,2.19,0,0,1-.65-.44.93.93,0,0,1,0-1.35,2,2,0,0,1,.65-.44,4.7,4.7,0,0,1,1.9-.36,4.75,4.75,0,0,1,1.91.36,1.87,1.87,0,0,1,.64.44.93.93,0,0,1,0,1.35,2,2,0,0,1-.64.44A4.93,4.93,0,0,1,25.6,27.21Zm0-.7a4,4,0,0,0,1.62-.3c.41-.18.53-.38.53-.48s-.11-.29-.53-.47A4,4,0,0,0,25.6,25a4,4,0,0,0-1.61.3c-.42.18-.53.38-.53.47s.11.29.53.48A4,4,0,0,0,25.6,26.51Zm.07-.26a.33.33,0,0,1-.28-.16.35.35,0,0,1-.05-.13v-.13h0a.33.33,0,0,1-.32,0,.38.38,0,0,0-.21,0,.26.26,0,0,0-.16.08.33.33,0,0,1-.22.09.32.32,0,0,1-.27-.11.35.35,0,0,1,0-.49,1,1,0,0,1,.57-.27,1.24,1.24,0,0,1,.52.09.35.35,0,0,1,.22.39h0a1.45,1.45,0,0,1,1.38-.13.36.36,0,0,1,.2.46.34.34,0,0,1-.45.19.91.91,0,0,0-.41-.06.81.81,0,0,0-.35.12A.36.36,0,0,1,25.67,26.25Zm7.63-1c2.93,0,5-1.27,5-2.54s-2.06-2.54-5-2.54-5,1.27-5,2.54a1.43,1.43,0,0,0,0,.29l.06.14.27.08A4.27,4.27,0,0,1,31,25v0l.45.11A8.94,8.94,0,0,0,33.3,25.28Zm0-1.3a4.87,4.87,0,0,1-1.9-.36,2.07,2.07,0,0,1-.65-.44.93.93,0,0,1,0-1.35,1.91,1.91,0,0,1,.65-.44,4.7,4.7,0,0,1,1.9-.36,4.75,4.75,0,0,1,1.91.36,2,2,0,0,1,.64.44.93.93,0,0,1,0,1.35,2.14,2.14,0,0,1-.64.44A4.93,4.93,0,0,1,33.28,24Zm0-.7A4.07,4.07,0,0,0,34.9,23c.41-.19.52-.38.52-.48s-.1-.29-.52-.48a4.67,4.67,0,0,0-3.24,0c-.41.19-.52.39-.52.48s.11.29.52.48A4.07,4.07,0,0,0,33.28,23.28Zm.1-.24a.36.36,0,0,1-.29-.16.46.46,0,0,1-.05-.23v0h0a.35.35,0,0,1-.33,0,.33.33,0,0,0-.2,0,.3.3,0,0,0-.17.08.3.3,0,0,1-.21.09.33.33,0,0,1-.28-.11.34.34,0,0,1,0-.49,1,1,0,0,1,.56-.27A1.26,1.26,0,0,1,33,22a.34.34,0,0,1,.21.39h0a1.45,1.45,0,0,1,1.39-.12.35.35,0,1,1-.26.64.87.87,0,0,0-.4-.06.72.72,0,0,0-.35.13A.35.35,0,0,1,33.38,23ZM19,21.53h-.07a.35.35,0,0,1,0-.67l15.76-5.34,4.7-1.41a.34.34,0,0,1,.44.26l.33,1.5a.34.34,0,0,1-.23.41l-4.76,1.52h0l-16,3.72Zm-.59-1a.36.36,0,0,1-.18-.66l14.34-8.3,4.32-2.3a.35.35,0,0,1,.48.17l.63,1.4a.34.34,0,0,1-.14.45l-4.36,2.42,0,0L18.56,20.5Zm7.39-1.3,8.77-2-.23-.86ZM35.25,17l4.13-1.33-.18-.82L35,16.13ZM24.66,17l8.19-3.71-.4-.8Zm8.81-4,3.78-2.1-.35-.78-3.84,2Z" transform="translate(-18.07 -9.24)"/></svg>